<svg viewBox="0 0 32 30" xmlns="http://www.w3.org/2000/svg"><path d="m7.3 30c-.4 0-.8-.1-1.1-.4-.6-.4-.9-1.1-.8-1.8l1.5-8.5-6.3-6c-.5-.5-.7-1.2-.5-1.9s.8-1.2 1.5-1.3l8.7-1.2 4-7.9c.3-.6 1-1 1.7-1 .7 0 1.4.4 1.7 1l3.9 7.8 8.7 1.2c.7.1 1.3.6 1.5 1.3s0 1.4-.5 1.9l-6.3 6 1.5 8.5c.1.7-.2 1.4-.8 1.8s-1.4.5-2 .1l-7.8-4-7.8 4c-.2.3-.5.4-.8.4zm8.7-28.7c-.1 0-.3 0-.5.3l-4.2 8.4-9.5 1.4c-.3 0-.4.3-.4.4s-.1.3.1.5l6.8 6.5-1.5 9.2c-.1.3.1.5.2.5s.3.2.6 0l8.5-4.4 8.5 4.4c.3.1.5 0 .6 0 .1-.1.3-.2.2-.5l-1.6-9.2 6.8-6.5c.2-.2.2-.4.1-.5 0-.1-.1-.3-.4-.4l-9.6-1.4-4.2-8.4c-.2-.2-.4-.3-.5-.3z"/></svg>
