<svg viewBox="0 0 32 26" xmlns="http://www.w3.org/2000/svg"><path d="m28.72 6.47c.02.28.02.56.02.85 0 8.67-6.6 18.68-18.68 18.68-3.57 0-7.06-1.02-10.06-2.95.52.06 1.04.09 1.56.09 2.96 0 5.83-.99 8.15-2.82-2.81-.05-5.27-1.88-6.13-4.56.98.19 2 .15 2.96-.11-3.06-.62-5.27-3.31-5.27-6.43v-.08c.91.51 1.93.79 2.98.82-2.87-1.92-3.76-5.76-2.02-8.76 3.33 4.1 8.25 6.59 13.53 6.86-.53-2.28.19-4.67 1.9-6.27 2.64-2.49 6.8-2.36 9.29.28 1.47-.29 2.88-.83 4.17-1.59-.49 1.52-1.52 2.81-2.89 3.63 1.3-.15 2.57-.5 3.77-1.03-.88 1.32-1.99 2.47-3.28 3.4z"/></svg>
