<svg viewBox="0 0 242 32" xmlns="http://www.w3.org/2000/svg"><path d="m240.9.2h1.1v5h-1.1v-3.5l-1.7 2.3-1.7-2.3v3.5h-1.1v-5h1.1l1.7 2.3zm-6.7 5h-1.1v-4h-1.5v-1h4.2v1h-1.6zm-53.3-5.2 12.1 12.6 12.1-12.6h6.7l-15.6 15.6 16.3 16.2h-6.8l-12.6-13-12.6 13h-6.8l16.3-16.2-15.8-15.6zm-44.4 21.4c0 3 .2 4 1 4.8s1.7 1 4.8 1h16.5c3.1 0 4-.2 4.8-1s1-1.8 1-4.8v-10.9c0-3-.2-4-1-4.8s-1.7-1-4.8-1h-16.5c-3.1 0-4 .2-4.8 1s-1 1.8-1 4.8zm33.1 1c0 3.6-.6 5.7-2.2 7.3-1.7 1.6-3.8 2.3-7.3 2.3h-19.1c-3.5 0-5.6-.7-7.3-2.3-1.6-1.6-2.2-3.6-2.2-7.3v-12.8c0-3.6.6-5.7 2.2-7.3 1.7-1.6 3.8-2.3 7.3-2.3h19.1c3.5 0 5.6.7 7.3 2.3 1.6 1.6 2.2 3.6 2.2 7.3zm-47.4-22.4h6.1l-20.9 32h-3.5l-20.9-32h6.1l16.5 25.5zm-72 4.8v8.8h29l-.6 4.8h-28.4v8.8h30.3v4.8h-35.4v-32h34.1v4.8zm-45.1 22.3h22.3c3.1 0 4-.2 4.8-1s1-1.8 1-4.8v-10.8c0-3-.2-4-1-4.8s-1.7-1-4.8-1h-22.3zm23.6-27.1c3.5 0 5.6.7 7.3 2.3 1.6 1.6 2.2 3.6 2.2 7.3v12.8c0 3.6-.6 5.7-2.2 7.3-1.7 1.6-3.8 2.3-7.3 2.3h-28.7v-32z" fill="#3b3a3b"/><path d="m214.4 15.7 15.7-15.7h-6.7l-12.1 12.6-6-6.1-3.2 3.2 6 6-16.3 16.2h6.8l12.6-13 12.6 13h6.8zm-22-15.7 6.5 6.5 3.2-3.3-3-3.1h-6.7z" fill="#e17d00"/></svg>