<svg viewBox="0 0 32 32" xmlns="http://www.w3.org/2000/svg"><path d="m16 24c-4.4 0-8-3.6-8-8s3.6-8 8-8 8 3.6 8 8-3.6 8-8 8zm0-13.3c-2.9 0-5.3 2.4-5.3 5.3s2.4 5.3 5.3 5.3 5.3-2.4 5.3-5.3-2.4-5.3-5.3-5.3zm0-5.4c-.8 0-1.3-.5-1.3-1.3v-2.7c0-.8.5-1.3 1.3-1.3s1.3.5 1.3 1.3v2.7c0 .8-.5 1.3-1.3 1.3zm0 26.7c-.8 0-1.3-.5-1.3-1.3v-2.7c0-.8.5-1.3 1.3-1.3s1.3.5 1.3 1.3v2.7c0 .8-.5 1.3-1.3 1.3zm-8.5-23.2c-.4 0-.7-.1-.9-.4l-1.9-1.9c-.6-.5-.6-1.3 0-1.8s1.3-.5 1.9 0l1.9 1.9c.5.5.5 1.3 0 1.9-.2.2-.6.3-1 .3zm18.9 18.9c-.4 0-.7-.1-.9-.4l-1.9-1.9c-.5-.5-.5-1.3 0-1.9s1.3-.5 1.9 0l1.9 1.9c.5.5.5 1.3 0 1.9-.3.3-.7.4-1 .4zm-22.4-10.4h-2.7c-.8 0-1.3-.5-1.3-1.3s.5-1.3 1.3-1.3h2.7c.8 0 1.3.5 1.3 1.3s-.5 1.3-1.3 1.3zm26.7 0h-2.7c-.8 0-1.3-.5-1.3-1.3s.5-1.3 1.3-1.3h2.7c.8 0 1.3.5 1.3 1.3s-.5 1.3-1.3 1.3zm-25.1 10.4c-.4 0-.7-.1-.9-.4-.5-.5-.5-1.3 0-1.9l1.9-1.9c.5-.5 1.3-.5 1.9 0s.5 1.3 0 1.9l-1.9 1.9c-.3.3-.6.4-1 .4zm18.9-18.9c-.4 0-.7-.1-.9-.4-.5-.5-.5-1.3 0-1.9l1.9-1.9c.5-.5 1.3-.5 1.9 0s.5 1.3 0 1.9l-1.9 1.9c-.3.3-.7.4-1 .4z"/></svg>