<svg viewBox="0 0 32 32" xmlns="http://www.w3.org/2000/svg"><path d="m16 32c-8.9 0-16-7.1-16-16s7.1-16 16-16 16 7.1 16 16-7.1 16-16 16zm0-29.1c-7.3 0-13.1 5.9-13.1 13.1s5.9 13.1 13.1 13.1 13.1-5.9 13.1-13.1-5.8-13.1-13.1-13.1zm14.5 14.6h-29c-1 0-1.5-.6-1.5-1.5s.5-1.5 1.5-1.5h29c.9 0 1.5.5 1.5 1.5s-.5 1.5-1.5 1.5zm-14.5 14.5c-.4 0-.7-.1-1.1-.4-3.9-4.3-6-9.7-6.3-15.6.2-5.9 2.3-11.3 6.3-15.6.4-.3.7-.4 1.1-.4s.7.1 1.1.4c3.9 4.3 6.1 9.7 6.3 15.6-.1 5.9-2.3 11.3-6.3 15.6-.4.3-.7.4-1.1.4zm0-28.3c-2.8 3.6-4.3 7.8-4.4 12.3.1 4.4 1.6 8.7 4.4 12.3 2.8-3.5 4.3-7.9 4.4-12.4-.1-4.4-1.6-8.6-4.4-12.2z"/></svg>