<svg enable-background="new 0 0 108 32" viewBox="0 0 108 32" xmlns="http://www.w3.org/2000/svg" xmlns:xlink="http://www.w3.org/1999/xlink"><linearGradient id="a" gradientTransform="matrix(1 0 0 -1 0 174)" gradientUnits="userSpaceOnUse" x1="17.4396" x2="4.0138" y1="167.0322" y2="153.6063"><stop offset="0" stop-color="#00a0ff"/><stop offset=".00657445" stop-color="#00a1ff"/><stop offset=".2601" stop-color="#00beff"/><stop offset=".5122" stop-color="#00d2ff"/><stop offset=".7604" stop-color="#00dfff"/><stop offset="1" stop-color="#00e3ff"/></linearGradient><linearGradient id="b" gradientTransform="matrix(1 0 0 -1 0 174)" gradientUnits="userSpaceOnUse" x1="27.0673" x2="7.7099" y1="157.9988" y2="157.9988"><stop offset="0" stop-color="#ffe000"/><stop offset=".4087" stop-color="#ffbd00"/><stop offset=".7754" stop-color="#ffa500"/><stop offset="1" stop-color="#ff9c00"/></linearGradient><linearGradient id="c" gradientTransform="matrix(1 0 0 -1 0 174)" gradientUnits="userSpaceOnUse" x1="19.8614" x2="1.6549" y1="156.1631" y2="137.9566"><stop offset="0" stop-color="#ff3a44"/><stop offset="1" stop-color="#c31162"/></linearGradient><linearGradient id="d" gradientTransform="matrix(1 0 0 -1 0 174)" gradientUnits="userSpaceOnUse" x1="5.8378" x2="13.9677" y1="173.859" y2="165.729"><stop offset="0" stop-color="#32a071"/><stop offset=".0685" stop-color="#2da771"/><stop offset=".4762" stop-color="#15cf74"/><stop offset=".8009" stop-color="#06e775"/><stop offset="1" stop-color="#00f076"/></linearGradient><path d="m104 32h-100c-2.2 0-4-1.8-4-4v-24c0-2.2 1.8-4 4-4h100c2.2 0 4 1.8 4 4v24c0 2.2-1.8 4-4 4z"/><path d="m104 .6c1.9 0 3.4 1.5 3.4 3.4v24c0 1.9-1.5 3.4-3.4 3.4h-100c-1.9 0-3.4-1.5-3.4-3.4v-24c0-1.9 1.5-3.4 3.4-3.4zm0-.6h-100c-2.2 0-4 1.8-4 4v24c0 2.2 1.8 4 4 4h100c2.2 0 4-1.8 4-4v-24c0-2.2-1.8-4-4-4z" fill="#a6a6a6"/><g fill="#fff"><g stroke="#fff" stroke-miterlimit="10" stroke-width=".2"><path d="m37.9 8.2c0 .7-.2 1.2-.6 1.6-.5.5-1 .7-1.8.7-.7 0-1.3-.2-1.8-.7s-.7-1.1-.7-1.8.2-1.3.7-1.8 1.1-.7 1.8-.7c.3 0 .7.1 1 .2s.6.3.8.5l-.4.4c-.3-.4-.8-.6-1.3-.6s-.9.2-1.3.5c-.4.5-.6.9-.6 1.5s.2 1 .6 1.4.8.5 1.3.5 1-.2 1.3-.5c.2-.2.4-.6.4-1h-1.7v-.6h2.3z"/><path d="m41.6 6.2h-2.2v1.5h2v.6h-2v1.5h2.2v.6h-2.8v-4.8h2.8z"/><path d="m44.2 10.4h-.6v-4.2h-1.3v-.6h3.3v.6h-1.3v4.2z"/><path d="m48 10.4v-4.8h.6v4.8z"/><path d="m51.3 10.4h-.6v-4.2h-1.3v-.6h3.3v.6h-1.3v4.2z"/><path d="m58.9 9.8c-.5.5-1.1.7-1.8.7s-1.3-.2-1.8-.7-.7-1.1-.7-1.8.2-1.3.7-1.8 1.1-.7 1.8-.7 1.3.2 1.8.7.7 1.1.7 1.8-.2 1.3-.7 1.8zm-3.1-.4c.4.4.8.5 1.3.5s.9-.2 1.3-.5c.4-.4.6-.8.6-1.4s-.2-1-.5-1.4c-.4-.4-.8-.5-1.3-.5s-.9.2-1.3.5c-.4.4-.6.8-.6 1.4s.2 1 .5 1.4z"/><path d="m60.5 10.4v-4.8h.8l2.3 3.7v-.9-2.8h.6v4.8h-.6l-2.4-3.9v.9 3z"/></g><path d="m54.5 17.4c-1.9 0-3.4 1.4-3.4 3.4s1.5 3.4 3.4 3.4 3.4-1.4 3.4-3.4-1.5-3.4-3.4-3.4zm0 5.5c-1 0-1.9-.9-1.9-2.1s.9-2.1 1.9-2.1 1.9.8 1.9 2.1c0 1.2-.9 2.1-1.9 2.1zm-7.4-5.5c-1.9 0-3.4 1.4-3.4 3.4s1.5 3.4 3.4 3.4 3.4-1.4 3.4-3.4-1.6-3.4-3.4-3.4zm0 5.5c-1 0-1.9-.9-1.9-2.1s.9-2.1 1.9-2.1 1.9.8 1.9 2.1c0 1.2-.9 2.1-1.9 2.1zm-8.9-4.5v1.4h3.5c-.1.8-.4 1.4-.8 1.8-.5.5-1.3 1.1-2.7 1.1-2.1 0-3.8-1.7-3.8-3.8s1.7-3.8 3.8-3.8c1.1 0 2 .5 2.6 1l1-1c-.9-.8-2-1.5-3.6-1.5-2.9 0-5.4 2.4-5.4 5.3s2.4 5.3 5.4 5.3c1.6 0 2.8-.5 3.7-1.5 1-1 1.3-2.3 1.3-3.4 0-.3 0-.6-.1-.9zm36.2 1.2c-.3-.8-1.1-2.2-2.9-2.2s-3.2 1.4-3.2 3.4c0 1.9 1.4 3.4 3.4 3.4 1.6 0 2.5-1 2.8-1.5l-1.2-.8c-.4.6-.9.9-1.7.9s-1.3-.3-1.6-1l4.5-1.9zm-4.6 1.1c0-1.3 1-2 1.8-2 .6 0 1.1.3 1.3.7zm-3.7 3.3h1.5v-10h-1.5zm-2.4-5.8c-.4-.4-1-.8-1.8-.8-1.7 0-3.3 1.5-3.3 3.4s1.6 3.4 3.3 3.4c.8 0 1.5-.4 1.8-.8h.1v.5c0 1.3-.7 2-1.8 2-.9 0-1.5-.7-1.7-1.2l-1.3.5c.4.9 1.4 2 3 2 1.8 0 3.2-1 3.2-3.5v-6.1h-1.4v.6zm-1.8 4.7c-1 0-1.9-.9-1.9-2 0-1.2.9-2.1 1.9-2.1s1.8.9 1.8 2.1c.1 1.1-.7 2-1.8 2zm19.5-8.9h-3.6v10h1.5v-3.8h2.1c1.7 0 3.3-1.2 3.3-3.1s-1.6-3.1-3.3-3.1zm.1 4.8h-2.1v-3.4h2.1c1.1 0 1.7.9 1.7 1.7s-.6 1.7-1.7 1.7zm9.2-1.4c-1.1 0-2.2.5-2.7 1.5l1.3.6c.3-.6.8-.7 1.4-.7.8 0 1.6.5 1.6 1.3v.1c-.3-.2-.8-.4-1.6-.4-1.4 0-2.9.8-2.9 2.3 0 1.3 1.2 2.2 2.5 2.2 1 0 1.6-.5 1.9-1h.1v.7h1.4v-3.8c0-1.8-1.3-2.8-3-2.8zm-.2 5.5c-.5 0-1.2-.2-1.2-.8 0-.8.8-1.1 1.6-1.1.7 0 1 .1 1.4.3-.1.9-.9 1.6-1.8 1.6zm8.5-5.3-1.7 4.3h-.1l-1.8-4.3h-1.6l2.7 6.1-1.5 3.3h1.6l4.1-9.4zm-13.5 6.4h1.5v-10h-1.5z"/></g><path d="m8.3 6c-.2.3-.3.7-.3 1.2v17.7c0 .5.1.9.4 1.1l9.9-9.9v-.1-.1z" fill="url(#a)"/><path d="m21.6 19.4-3.3-3.3v-.1-.1l3.3-3.3h.1l3.9 2.2c1.1.6 1.1 1.7 0 2.3z" fill="url(#b)"/><path d="m21.7 19.4-3.4-3.4-10 10c.4.4 1 .4 1.7 0z" fill="url(#c)"/><path d="m21.7 12.6-11.7-6.6c-.7-.4-1.3-.4-1.7 0l10 10z" fill="url(#d)"/><path d="m21.6 19.3-11.6 6.6c-.6.4-1.2.3-1.6 0l-.1.1h.1c.4.3 1 .4 1.6 0z" opacity=".2"/><path d="m8.3 25.9c-.2-.3-.3-.7-.3-1.2v.1c0 .5.1.9.4 1.1z" opacity=".12"/><path d="m25.6 17-4 2.3.1.1 3.9-2.2c.6-.3.8-.7.8-1.2 0 .4-.3.8-.8 1z" opacity=".12"/><path d="m10 6.1 15.6 8.9c.5.3.8.7.8 1 0-.4-.3-.8-.8-1.2l-15.6-8.8c-1.1-.7-2-.1-2 1.2v.1c0-1.3.9-1.8 2-1.2z" fill="#fff" opacity=".25"/></svg>