<svg enable-background="new 0 0 96 32" viewBox="0 0 96 32" xmlns="http://www.w3.org/2000/svg"><path d="m88.5 0h-80.9c-.3 0-.6 0-.8 0-.3 0-.5 0-.8 0-.5 0-1.1.1-1.6.2s-1 .3-1.5.5-.9.5-1.3.9-.7.8-.9 1.3-.4 1-.5 1.5-.2 1.1-.2 1.6v.7 18.5.7c0 .5.1 1.1.1 1.6.1.5.3 1 .5 1.5s.6.9.9 1.3c.4.4.8.7 1.3.9s1 .4 1.5.5c.6.2 1.2.3 1.7.3h.7.9 80.8.9.7c.5 0 1.1-.1 1.6-.1.5-.1 1-.3 1.5-.5s.9-.6 1.3-.9c.4-.4.7-.8.9-1.3s.4-1 .5-1.5.1-1.1.1-1.6c0-.2 0-.5 0-.7 0-.3 0-.6 0-.9v-16.9c0-.3 0-.6 0-.9 0-.2 0-.5 0-.7 0-.5-.1-1.1-.1-1.6-.1-.5-.3-1-.5-1.5-.5-1-1.3-1.7-2.2-2.2-.5-.2-1-.4-1.5-.5s-1-.2-1.5-.2c-.2 0-.5 0-.7 0-.3 0-.6 0-.9 0z" fill="#a6a6a6"/><path d="m6.8 31.3c-.2 0-.5 0-.7 0-.5 0-1-.1-1.5-.1-.5-.1-.9-.2-1.3-.4s-.8-.5-1.1-.8-.6-.7-.8-1.1-.4-.9-.4-1.3c-.1-.5-.1-1-.1-1.5 0-.2 0-.7 0-.7v-18.6s0-.6 0-.7c0-.5.1-1 .1-1.5.1-.5.2-.9.4-1.3s.5-.8.8-1.1.7-.6 1.1-.8.9-.4 1.3-.4c.4-.2.9-.3 1.4-.3h.7 82.6.7c.5 0 1 0 1.5.1s.9.2 1.3.4c.8.4 1.5 1.1 1.9 1.9.3.4.5.9.5 1.3.2.6.2 1.1.2 1.6v.7.9 16.7.9.7c0 .5-.1 1-.1 1.5-.1.5-.2.9-.4 1.3s-.5.8-.8 1.1-.7.6-1.1.8-.9.4-1.3.4c-.5.1-1 .1-1.5.1-.2 0-.5 0-.7 0h-.9z"/><g fill="#fff"><path d="m19.9 16.2c0-1.4.7-2.6 1.9-3.3-.7-1-1.9-1.7-3.2-1.7-1.3-.1-2.6.8-3.3.8s-1.8-.8-2.9-.8c-1.5 0-2.9.9-3.6 2.2-1.5 2.7-.4 6.6 1.1 8.8.7 1.1 1.6 2.2 2.7 2.2s1.5-.7 2.9-.7c1.3 0 1.7.7 2.9.7s1.9-1.1 2.7-2.1c.5-.8.9-1.6 1.2-2.5-1.5-.6-2.4-2-2.4-3.6z"/><path d="m17.7 9.8c.7-.8 1-1.8.9-2.8-1 .1-1.9.6-2.6 1.3-.6.7-.9 1.7-.9 2.7 1 0 2-.4 2.6-1.2z"/><path d="m33.9 21.7h-3.8l-.9 2.7h-1.6l3.6-9.9h1.7l3.6 9.9h-1.6zm-3.4-1.2h3l-1.4-4.4z"/><path d="m44.3 20.8c0 2.3-1.2 3.7-3 3.7-.9 0-1.8-.4-2.3-1.3v3.6h-1.5v-9.6h1.4v1.2c.5-.8 1.4-1.3 2.3-1.3 1.9 0 3.1 1.4 3.1 3.7zm-1.5 0c0-1.5-.8-2.4-1.9-2.4s-1.9 1-1.9 2.4c0 1.5.8 2.4 1.9 2.4s1.9-.9 1.9-2.4z"/><path d="m52.3 20.8c0 2.3-1.2 3.7-3 3.7-.9 0-1.8-.4-2.3-1.3v3.6h-1.5v-9.6h1.4v1.2c.5-.8 1.4-1.3 2.3-1.3 1.9 0 3.1 1.4 3.1 3.7zm-1.5 0c0-1.5-.8-2.4-1.9-2.4s-1.9 1-1.9 2.4c0 1.5.8 2.4 1.9 2.4s1.9-.9 1.9-2.4z"/><path d="m57.6 21.6c.1 1 1.1 1.6 2.4 1.6s2.2-.6 2.2-1.5c0-.8-.5-1.2-1.8-1.5l-1.3-.3c-1.8-.4-2.7-1.3-2.7-2.7 0-1.7 1.5-2.9 3.6-2.9s3.5 1.2 3.6 2.9h-1.5c-.1-1-.9-1.6-2.1-1.6s-2 .6-2 1.5c0 .7.5 1.1 1.8 1.4l1.1.3c2 .5 2.9 1.3 2.9 2.8 0 1.9-1.5 3-3.8 3-2.2 0-3.7-1.1-3.8-2.9z"/><path d="m67 15.4v1.7h1.4v1.2h-1.4v4c0 .6.3.9.9.9h.5v1.2c-.3.1-.5.1-.8.1-1.5 0-2-.6-2-2v-4.2h-1.1v-1.2h1.1v-1.7z"/><path d="m69.2 20.8c0-2.3 1.3-3.7 3.4-3.7s3.4 1.4 3.4 3.7-1.3 3.7-3.4 3.7-3.4-1.4-3.4-3.7zm5.3 0c0-1.6-.7-2.5-1.9-2.5s-1.9.9-1.9 2.5.7 2.5 1.9 2.5 1.9-1 1.9-2.5z"/><path d="m77.2 17.2h1.4v1.2c.2-.8.9-1.3 1.7-1.3.2 0 .3 0 .5.1v1.4c-.2-.1-.4-.1-.7-.1-.8 0-1.5.6-1.6 1.4v.2 4.3h-1.5z"/><path d="m87.9 22.3c-.2 1.3-1.5 2.2-3.1 2.2-2.1 0-3.4-1.4-3.4-3.7s1.3-3.7 3.4-3.7c2 0 3.3 1.4 3.3 3.6v.5h-5.1v.1c-.1 1 .7 2 1.7 2h.2c.7.1 1.4-.3 1.7-1zm-5.1-2.2h3.6c.1-1-.7-1.8-1.6-1.8h-.1c-1.1 0-1.9.8-1.9 1.8z"/><path d="m30.4 7c1.2-.1 2.2.8 2.3 2v.4c0 1.5-.8 2.4-2.2 2.4h-1.7v-4.8zm-1 4.1h.9c.8 0 1.5-.6 1.6-1.4 0-.1 0-.2 0-.3.1-.8-.5-1.6-1.3-1.7-.1 0-.2 0-.3 0h-.9z"/><path d="m33.4 10c-.1-.9.6-1.8 1.5-1.9s1.8.6 1.9 1.5v.3c.1.9-.6 1.8-1.5 1.9s-1.8-.6-1.9-1.5c0-.1 0-.2 0-.3zm2.8 0c0-.8-.4-1.2-1-1.2s-1 .5-1 1.2c0 .8.3 1.2 1 1.2s1-.5 1-1.2z"/><path d="m41.5 11.8h-.7l-.7-2.7h-.1l-.8 2.7h-.7l-1-3.6h.7l.6 2.7h.1l.7-2.7h.7l.7 2.7h.1l.6-2.7h.7z"/><path d="m43.3 8.2h.7v.6h.1c.1-.5.5-.8 1-.7.6 0 1.2.4 1.3 1.1v.3 2.3h-.7v-2.2c0-.6-.3-.9-.8-.9s-.8.3-.9.8v.1 2.1h-.7z"/><path d="m47.5 6.7h.7v5h-.7z"/><path d="m49.2 10c-.1-.9.6-1.8 1.5-1.9s1.8.6 1.9 1.5v.3c.1.9-.6 1.8-1.5 1.9s-1.8-.6-1.9-1.5c0-.1 0-.2 0-.3zm2.6 0c0-.8-.4-1.2-1-1.2s-1 .5-1 1.2c0 .8.3 1.2 1 1.2s1-.5 1-1.2z"/><path d="m53.3 10.7c0-.6.5-1 1.3-1.1l1-.1v-.2c0-.4-.3-.6-.7-.6s-.7.1-.8.4h-.7c.1-.6.7-1 1.5-1 .9 0 1.4.4 1.4 1.2v2.5h-.7v-.5h-.1c-.2.4-.6.6-1.1.6-.6.1-1.1-.4-1.2-1 .1-.1.1-.1.1-.2zm2.3-.3v-.3l-.9.1c-.5 0-.7.2-.7.5s.3.5.7.5c.5.1.9-.3.9-.8z"/><path d="m57.3 10c0-1.1.6-1.9 1.5-1.9.5 0 .9.2 1.1.6h.1v-2h.7v5h-.7v-.6h-.1c-.2.4-.7.6-1.1.6-.9.1-1.5-.6-1.5-1.7zm.7 0c0 .8.4 1.2 1 1.2s1-.5 1-1.2c0-.8-.4-1.2-1-1.2-.6-.1-1 .4-1 1.2z"/><path d="m63.7 10c-.1-1 .6-1.8 1.5-1.9s1.8.6 1.9 1.5v.3c.1.9-.6 1.8-1.5 1.9s-1.8-.6-1.9-1.5c0-.1 0-.2 0-.3zm2.7 0c0-.8-.4-1.2-1-1.2s-1 .5-1 1.2c0 .8.3 1.2 1 1.2.6 0 1-.5 1-1.2z"/><path d="m68 8.2h.7v.6h.1c.2-.4.6-.7 1.1-.6.6 0 1.2.4 1.3 1.1v.3 2.3h-.7v-2.3c0-.6-.3-.9-.8-.9s-.8.3-.9.8v.1 2.1h-.7v-3.5z"/><path d="m75.1 7.3v.9h.8v.6h-.8v1.9c0 .4.2.5.5.5h.3v.6c-.1 0-.3 0-.4 0-.8 0-1.1-.3-1.1-1v-2h-.6v-.6h.6v-.9z"/><path d="m76.9 6.7h.7v2h.1c.2-.4.6-.7 1.1-.6.7 0 1.2.5 1.2 1.1v.2 2.3h-.7v-2.1c0-.6-.3-.9-.8-.9s-.9.3-.9.8v.1 2.1h-.7z"/><path d="m84.2 10.8c-.2.7-.9 1.1-1.6 1-.9 0-1.7-.7-1.7-1.6 0-.1 0-.2 0-.3-.2-.9.4-1.7 1.3-1.9h.2c1 0 1.6.7 1.6 1.8v.2h-2.5c0 .5.3 1 .9 1h.1c.3 0 .7-.1.9-.4zm-2.6-1.2h1.8c0-.5-.3-.9-.8-.9h-.1c-.5 0-.9.4-.9.9z"/></g></svg>